<svg xmlns="http://www.w3.org/2000/svg" viewBox="0 0 311 103" width="622" height="206" role="img" aria-label="Reboot">
  
  <path transform="translate(0,70)" fill="#4A1522" d="M20.20 0L4 0L4-66L31.40-66Q35.80-66 39.75-65.25Q43.70-64.50 46.95-63Q50.20-61.50 52.60-59.20Q55-56.90 56.30-53.75Q57.60-50.60 57.60-46.60L57.60-46.60Q57.60-43.50 56.55-40.75Q55.50-38 53.25-35.80Q51-33.60 47.45-32.15Q43.90-30.70 39-30.10L39-30.10L39-29.30Q45.40-29 48.90-26.80Q52.40-24.60 54.15-21.25Q55.90-17.90 56.80-14L56.80-14L60.30 0L42.40 0L39.90-13.10Q39.30-16.50 38.05-18.60Q36.80-20.70 34.50-21.70Q32.20-22.70 28.40-22.70L28.40-22.70L20.20-22.70L20.20 0ZM20.20-53L20.20-35.20L29.60-35.20Q35.10-35.20 38-37.30Q40.90-39.40 40.90-43.70L40.90-43.70Q40.90-48.40 38.20-50.70Q35.50-53 30-53L30-53L20.20-53Z M87.20 1.40L87.20 1.40Q79.70 1.40 74.65-0.75Q69.60-2.90 66.50-6.65Q63.40-10.40 62.05-15.20Q60.70-20 60.70-25.30L60.70-25.30Q60.70-31 62.15-36.20Q63.60-41.40 66.65-45.45Q69.70-49.50 74.55-51.85Q79.40-54.20 86.20-54.20L86.20-54.20Q93-54.20 97.85-51.85Q102.70-49.50 105.60-45.30Q108.50-41.10 109.35-35.60Q110.20-30.10 109.10-23.70L109.10-23.70L70.80-23.10L70.80-31.90L96.70-32.40L94.60-27.30Q95.20-31.90 94.45-35.05Q93.70-38.20 91.70-39.85Q89.70-41.50 86.20-41.50L86.20-41.50Q82.50-41.50 80.30-39.60Q78.10-37.70 77.20-34.25Q76.30-30.80 76.30-26.10L76.30-26.10Q76.30-18 79-14.30Q81.70-10.60 87.30-10.60L87.30-10.60Q89.70-10.60 91.30-11.20Q92.90-11.80 93.90-12.95Q94.90-14.10 95.30-15.75Q95.70-17.40 95.60-19.50L95.60-19.50L110.40-18.70Q110.70-15.40 109.75-11.90Q108.80-8.40 106.20-5.40Q103.60-2.40 98.95-0.50Q94.30 1.40 87.20 1.40Z M144.50 1.40L144.50 1.40Q140 1.40 136.60-0.60Q133.20-2.60 130.95-6.55Q128.70-10.50 127.60-16.30L127.60-16.30L126.90-16.30L126.90 0L112.80 0L112.80-18.60L112.80-70L129-70L129-54.50Q129-51.80 128.75-48.70Q128.50-45.60 128.05-42.30Q127.60-39 127-35.60L127-35.60L127.90-35.60Q128.80-42.20 131.10-46.30Q133.40-50.40 137-52.30Q140.60-54.20 145.20-54.20L145.20-54.20Q151.10-54.20 155.45-51.20Q159.80-48.20 162.20-42.20Q164.60-36.20 164.60-27.10L164.60-27.10Q164.60-17.40 161.95-11.10Q159.30-4.80 154.75-1.70Q150.20 1.40 144.50 1.40ZM138.80-11.50L138.80-11.50Q141.80-11.50 143.90-13.45Q146-15.40 147.10-18.65Q148.20-21.90 148.20-25.80L148.20-25.80Q148.20-29.70 147.20-33.10Q146.20-36.50 144.10-38.60Q142-40.70 138.80-40.70L138.80-40.70Q137.40-40.70 135.95-40.20Q134.50-39.70 133.25-38.65Q132-37.60 131-35.95Q130-34.30 129.40-31.95Q128.80-29.60 128.80-26.60L128.80-26.60L128.80-25.90Q128.80-22.20 129.65-19.50Q130.50-16.80 131.90-15Q133.30-13.20 135.10-12.35Q136.90-11.50 138.80-11.50Z M192 1.40L192 1.40Q184.40 1.40 178.50-1.65Q172.60-4.70 169.30-10.85Q166-17 166-26.30L166-26.30Q166-36 169.45-42.15Q172.90-48.30 178.85-51.25Q184.80-54.20 192.30-54.20L192.30-54.20Q200.10-54.20 205.95-51.15Q211.80-48.10 215.05-41.95Q218.30-35.80 218.30-26.40L218.30-26.40Q218.30-16.70 214.85-10.55Q211.40-4.40 205.45-1.50Q199.50 1.40 192 1.40ZM192.40-10.50L192.40-10.50Q195.50-10.50 197.60-12.25Q199.70-14 200.80-17.40Q201.90-20.80 201.90-25.50L201.90-25.50Q201.90-30.70 200.70-34.25Q199.50-37.80 197.25-39.70Q195-41.60 191.80-41.60L191.80-41.60Q188.80-41.60 186.70-39.85Q184.60-38.10 183.50-34.70Q182.40-31.30 182.40-26.50L182.40-26.50Q182.40-18.90 185.05-14.70Q187.70-10.50 192.40-10.50Z M245.70 1.40L245.70 1.40Q238.10 1.40 232.20-1.65Q226.30-4.70 223-10.85Q219.70-17 219.70-26.30L219.70-26.30Q219.70-36 223.15-42.15Q226.60-48.30 232.55-51.25Q238.50-54.20 246-54.20L246-54.20Q253.80-54.20 259.65-51.15Q265.50-48.10 268.75-41.95Q272-35.80 272-26.40L272-26.40Q272-16.70 268.55-10.55Q265.10-4.40 259.15-1.50Q253.20 1.40 245.70 1.40ZM246.10-10.50L246.10-10.50Q249.20-10.50 251.30-12.25Q253.40-14 254.50-17.40Q255.60-20.80 255.60-25.50L255.60-25.50Q255.60-30.70 254.40-34.25Q253.20-37.80 250.95-39.70Q248.70-41.60 245.50-41.60L245.50-41.60Q242.50-41.60 240.40-39.85Q238.30-38.10 237.20-34.70Q236.10-31.30 236.10-26.50L236.10-26.50Q236.10-18.90 238.75-14.70Q241.40-10.50 246.10-10.50Z M295.90 1.20L295.90 1.20Q286.60 1.20 282.05-3.55Q277.50-8.30 277.50-18.30L277.50-18.30L277.50-40.20L271.70-40.20L271.70-50.40L272-50.40Q278.20-51.20 280.80-54.55Q283.40-57.90 284-64.70L284-64.70L284-64.90L293.50-64.90L293.50-52.80L305.60-52.80L305.60-39.80L293.50-39.80L293.50-19.80Q293.50-16 295.35-14.40Q297.20-12.80 299.90-12.80L299.90-12.80Q301.30-12.80 302.80-13.20Q304.30-13.60 305.60-14.30L305.60-14.30L305.60-0.20Q302.50 0.70 300.10 0.95Q297.70 1.20 295.90 1.20Z"></path>
  
  <rect x="0" y="90" width="192.8" height="12.5" rx="6.25" fill="#FF5747"></rect>
  <rect x="202.2" y="90" width="108.8" height="12.5" rx="6.25" fill="#FF5747" fill-opacity="0.25"></rect>
</svg>