<?xml version="1.0" encoding="UTF-8"?>
<svg id="Layer_2" data-name="Layer 2" xmlns="http://www.w3.org/2000/svg" viewBox="0 0 481.41 60.7">
  <defs>
    <style>
      .cls-1 {
        fill: #eb7200;
      }

      .cls-2 {
        fill: #102c5a;
      }
    </style>
  </defs>
  <g id="Layer_1-2" data-name="Layer 1">
    <path class="cls-2" d="M379.44,52.33l2.99-.75v-25.57l-2.69-1.64v-.6l7.77-2.39h.15l.15,4.19c1.05-1.5,3.29-4.04,7.03-4.04,4.19,0,8.52,2.99,8.52,10.02,0,7.48-6.73,12.56-12.86,12.56-.9,0-1.79-.15-2.54-.15v7.77l4.63.9v1.2h-13.31v-1.5h.15ZM388.12,26.16v14.2c.75.9,2.09,1.79,3.89,1.79,3.14,0,5.68-2.99,5.68-8.67s-2.69-8.97-6.13-8.97c-1.2.15-2.39.75-3.44,1.64Z"/>
    <path class="cls-2" d="M405.31,42.16l2.84-.75V15.1l-2.69-1.5v-.75l8.22-2.69v31.25l2.99.75v1.2h-11.36v-1.2Z"/>
    <path class="cls-2" d="M434.31,40.37c-1.35,1.49-4.04,3.74-7.33,3.74-3.74,0-6.28-2.24-6.28-7.03v-12.11l-2.69-1.2v-.9l8.37-1.49v14.5c0,2.99,1.35,4.49,4.04,4.49,1.79,0,3.14-.75,4.04-1.5v-14.2l-2.99-1.05v-.9l8.67-1.49v19.29l2.99.9v1.05l-8.07,1.2-.75-3.29Z"/>
    <path class="cls-2" d="M445.67,42.61l-.3-6.88h1.05l2.54,5.38c.6.6,1.79,1.35,3.14,1.35,2.54,0,4.04-1.64,4.04-3.59,0-1.64-.9-2.84-3.14-3.59l-2.99-1.05c-2.99-1.05-4.48-3.14-4.48-6.13,0-4.04,3.74-6.88,9.12-6.88,2.09,0,4.19.6,5.83,1.35v6.13h-1.05l-2.24-4.78c-.75-.6-1.79-1.05-2.99-1.05-2.09,0-3.44,1.5-3.44,3.29,0,1.94,1.2,2.69,3.29,3.59l2.39.9c3.59,1.5,5.23,2.99,5.23,5.98,0,4.49-4.49,7.62-9.57,7.62-2.54-.15-4.63-.9-6.43-1.64Z"/>
    <path class="cls-2" d="M465.26,42.61l-.3-6.88h1.05l2.54,5.38c.6.6,1.79,1.35,3.14,1.35,2.54,0,4.04-1.64,4.04-3.59,0-1.64-.9-2.84-3.14-3.59l-2.99-1.05c-2.99-1.05-4.48-3.14-4.48-6.13,0-4.04,3.74-6.88,9.12-6.88,2.09,0,4.19.6,5.83,1.35v6.13h-.9l-2.24-4.78c-.75-.6-1.79-1.05-2.99-1.05-2.09,0-3.44,1.5-3.44,3.29,0,1.94,1.2,2.69,3.29,3.59l2.39.9c3.59,1.5,5.23,2.99,5.23,5.98,0,4.49-4.49,7.62-9.57,7.62-2.69-.15-4.78-.9-6.58-1.64Z"/>
    <path class="cls-1" d="M62.04,0h-2.54v60.7h2.54V0Z"/>
    <path class="cls-2" d="M88.8,44.1c3.14,0,4.78-1.94,6.13-3.74h.15c.15,2.39,1.35,3.59,3.74,3.59,2.24,0,5.23-1.64,5.23-1.64v-.9h-1.94c-1.2,0-1.5-.3-1.5-1.5v-11.81c0-4.78-2.39-6.73-7.03-6.73-5.38,0-9.87,3.14-9.87,5.68,0,1.49,1.05,2.24,2.54,2.24,1.05,0,1.79-.15,2.39-.45l.15-4.93c.45-.3,1.2-.6,2.24-.6,2.39,0,3.74,1.94,3.89,4.93v2.99l-4.34,1.05c-4.93,1.2-7.47,2.84-7.47,6.58,0,3.14,2.69,5.23,5.68,5.23ZM91.79,40.67c-2.09,0-3.14-1.5-3.14-3.44,0-1.64.9-3.14,3.44-3.89l2.99-1.05v6.58c-.75,1.05-1.79,1.79-3.29,1.79ZM108.24,41.41l-2.69.75v1.2h10.91v-1.2l-2.54-.75V10.02l-8.22,2.69v.75l2.69,1.49v26.46h-.15ZM125.73,43.95c1.94,0,3.44-1.05,3.44-1.05l-10.32-13.16,6.58-5.68,3.14-1.05v-1.05h-9.57v1.2l3.29,1.35-8.22,7.77,6.58,9.42c1.35,1.35,2.84,2.24,5.08,2.24ZM136.95,44.1c3.14,0,4.78-1.94,6.13-3.74h.15c.15,2.39,1.35,3.59,3.74,3.59,2.24,0,5.23-1.64,5.23-1.64v-.9h-1.94c-1.2,0-1.49-.3-1.49-1.5v-11.81c0-4.78-2.39-6.73-7.03-6.73-5.38,0-9.87,3.14-9.87,5.68,0,1.49,1.05,2.24,2.54,2.24,1.05,0,1.79-.15,2.39-.45l.15-4.93c.45-.3,1.2-.6,2.24-.6,2.39,0,3.74,1.94,3.89,4.93v2.99l-4.34,1.05c-4.93,1.2-7.48,2.84-7.48,6.58,0,3.14,2.69,5.23,5.68,5.23ZM139.94,40.67c-2.09,0-3.14-1.5-3.14-3.44,0-1.64.9-3.14,3.44-3.89l2.99-1.05v6.58c-.75,1.05-1.94,1.79-3.29,1.79ZM165.8,13.01l3.44,1.64v7.18c-.9-.15-1.94-.45-2.69-.45-6.43,0-12.71,4.93-12.71,12.26,0,5.68,3.44,10.47,9.12,10.47,2.84,0,5.08-1.64,6.43-3.14l.45,2.99,7.77-1.35v-1.05l-2.84-.75V10.02l-9.12,2.24v.75h.15ZM166.1,40.96c-4.19,0-6.58-4.78-6.58-9.57,0-5.98,2.54-8.22,5.38-8.22,2.39,0,3.59,1.35,4.33,2.54v14.2c-.9.45-1.94,1.05-3.14,1.05ZM189.72,43.95c4.93,0,7.77-3.29,9.72-5.98l-.75-.6c-1.35,1.05-3.44,2.54-6.13,2.54-4.34,0-7.77-3.29-7.77-9.12v-.45h14.35c-.75-5.98-3.59-9.12-8.67-9.12-5.38,0-10.76,5.23-10.76,11.81.15,5.83,3.74,10.91,10.02,10.91ZM189.12,22.87c2.39,0,3.59,2.39,4.04,5.98h-8.22c.45-3.89,2.09-5.98,4.19-5.98ZM229.34,43.36h10.91v-1.2l-2.84-.75v-13.01c0-5.23-2.24-7.18-6.13-7.18-3.59,0-6.73,2.99-7.77,4.19h-.15c-.6-2.99-2.54-4.19-5.68-4.19-3.59,0-6.58,2.84-7.77,4.04h-.15l-.3-4.19h-.15l-7.48,2.39v.6l2.69,1.64v15.4l-2.69.75v1.5h10.91v-1.2l-2.54-.75v-14.8c.9-.75,2.39-1.79,4.19-1.79,2.69,0,3.74,1.79,3.89,4.34v12.26l-2.54.75v1.2h10.77v-1.2l-2.54-.75v-14.95c.9-.6,2.39-1.64,4.04-1.64,2.69,0,3.89,1.79,3.89,4.34v12.26l-2.54.75v1.2ZM242.05,43.36h11.36v-1.2l-2.99-.75v-20.18l-8.37,2.24v.75l2.69,1.79v15.4l-2.84.75v1.2h.15ZM247.58,16.89c1.79,0,3.29-1.49,3.29-3.29s-1.49-3.29-3.29-3.29-3.29,1.49-3.29,3.29,1.49,3.29,3.29,3.29ZM258.34,41.41l-2.69.75v1.2h10.91v-1.2l-2.54-.75V10.02l-8.22,2.69v.75l2.69,1.49v26.46h-.15ZM275.84,43.95c1.94,0,3.44-1.05,3.44-1.05l-10.32-13.16,6.58-5.68,3.14-1.05v-1.05h-9.57v1.2l3.29,1.35-8.22,7.77,6.58,9.42c1.35,1.35,2.69,2.24,5.08,2.24ZM290.64,43.95c4.93,0,7.77-3.29,9.72-5.98l-.75-.6c-1.35,1.05-3.44,2.54-6.13,2.54-4.34,0-7.77-3.29-7.77-9.12v-.45h14.35c-.75-5.98-3.59-9.12-8.67-9.12-5.38,0-10.76,5.23-10.76,11.81,0,5.83,3.59,10.91,10.02,10.91ZM290.04,22.87c2.39,0,3.59,2.39,4.04,5.98h-8.22c.3-3.89,1.94-5.98,4.19-5.98ZM302.45,43.36h12.11v-1.2l-3.74-.75v-12.26c.6-1.94,2.09-3.29,2.84-3.59l2.69,1.64c1.94-.45,2.99-1.5,2.99-3.29s-1.49-2.84-2.99-2.84c-2.09,0-3.29,1.05-5.23,4.63l-.6,1.2h-.15l-.15-5.83h-.15l-7.62,2.39v.6l2.69,1.64v15.4l-2.69.75v1.5ZM320.84,43.36h10.91v-1.2l-2.54-.75v-14.95c.9-.6,2.39-1.64,4.19-1.64,2.69,0,3.74,1.79,3.89,4.34v12.26l-2.54.75v1.2h10.91v-1.2l-2.69-.75v-13.01c0-5.23-2.24-7.18-6.13-7.18-3.59,0-6.58,2.84-7.77,4.04h-.15l-.3-4.19h-.15l-7.47,2.39v.6l2.69,1.64v15.4l-2.69.75v1.5h-.15ZM357.76,43.95c4.93,0,7.77-3.29,9.72-5.98l-.75-.6c-1.35,1.05-3.44,2.54-6.13,2.54-4.34,0-7.77-3.29-7.77-9.12v-.45h14.35c-.75-5.98-3.59-9.12-8.67-9.12-5.38,0-10.77,5.23-10.77,11.81,0,5.83,3.59,10.91,10.02,10.91ZM357.02,22.87c2.39,0,3.59,2.39,4.04,5.98h-8.22c.45-3.89,2.09-5.98,4.19-5.98Z"/>
    <path class="cls-2" d="M39.62,45.3c-3.74-.3-4.63-2.09-6.43-6.73l-11.21-28.7h-8.07l2.09,5.53-8.07,20.48c-2.39,5.98-4.78,9.12-7.92,9.57v.45h11.66v-.45c-4.49-.45-5.23-2.99-2.84-9.42h15.4l1.64,3.89c1.35,2.99,1.2,5.08-2.24,5.38v.6h16v-.6ZM8.97,35.28l7.48-18.84,3.74,9.42,3.74,9.42h-14.95Z"/>
    <path class="cls-2" d="M48.44,10.02h-6.28V3.59h-2.54v6.43h-6.73l.9,2.24h5.83v6.43h2.54v-6.43h6.28v-2.24Z"/>
  </g>
</svg>