<?xml version="1.0" encoding="UTF-8"?>
<svg id="Layer_2" data-name="Layer 2" xmlns="http://www.w3.org/2000/svg" viewBox="0 0 111.55 19.34">
  <defs>
    <style>
      .cls-1 {
        fill: #fff;
      }
    </style>
  </defs>
  <g id="PRINT_2" data-name="PRINT 2">
    <g id="katman_1" data-name="katman 1">
      <path class="cls-1" d="M99.54,18.35c-.14.36-.49.59-.87.59h-4.23c-.4,0-.74-.23-.87-.59l-5.56-14.17h2.67c.4,0,.74.23.87.59l4.99,12.71,4.99-12.71c.14-.36.49-.59.87-.59h2.67l-5.56,14.17h.02ZM107.99,4.77l-5.56,14.16h2.69c.4,0,.74-.23.87-.59l5.56-14.17h-2.69c-.4,0-.74.23-.87.59ZM85.58,4.79c-.14-.36-.49-.59-.87-.59h-3.23c-.4,0-.73.23-.87.59l-.7,1.77c-.14.36-.49.59-.87.59h-.66v2.96h.35c.4,0,.73-.23.87-.59l.7-1.77c.14-.36.49-.59.87-.59h5.35l-.92-2.36h0l-.02-.02ZM89.31,15.99h-9.83c-.36,0-.62-.36-.49-.7l.65-1.66c.14-.36.49-.59.87-.59h7.61l-.92-2.36c-.14-.36-.49-.59-.87-.59h-5.51c-.4,0-.73.23-.87.59l-.7,1.77c-.14.36-.49.59-.87.59h-.05v4.99c0,.51.43.91.93.91h11.82l-.92-2.36c-.14-.36-.49-.59-.87-.59h0v-.02Z"/>
      <path class="cls-1" d="M12.14,4.18v14.75h-3.13v-6.59H3.12v6.59H0V4.18h3.12v5.63h5.89v-5.63h3.13ZM21.46,19.34c2.15,0,3.8-.57,4.94-1.72,1.52-1.41,2.28-3.44,2.28-6.09s-.76-4.73-2.28-6.09c-1.14-1.15-2.79-1.72-4.94-1.72s-3.8.57-4.94,1.72c-1.52,1.35-2.3,3.38-2.3,6.09s.76,4.68,2.3,6.09c1.14,1.15,2.79,1.72,4.94,1.72ZM24.44,15.39c-.74.9-1.73,1.35-2.98,1.35s-2.25-.45-2.99-1.35-1.11-2.19-1.11-3.84.36-2.94,1.11-3.84c.74-.9,1.74-1.35,2.99-1.35s2.23.45,2.98,1.35c.73.9,1.09,2.19,1.09,3.84s-.36,2.94-1.09,3.84M18.07,2.37h2.67V0h-2.67v2.37ZM22.16,2.37h2.67V0h-2.67v2.37ZM41.17,9.93h-7.31v-3.13h7.98v-2.62h-11.05v14.75h11.41v-2.65h-8.34v-3.8h7.31v-2.56h0ZM53.56,18.58c.49-.29,1.03-.77,1.63-1.49l.32,1.84h2.09v-7.92h-6.27v2.46h3.48c-.16.96-.57,1.75-1.25,2.34-.68.6-1.54.9-2.6.9s-2.04-.37-2.88-1.13c-.84-.76-1.27-2.05-1.27-3.86s.4-3.15,1.17-4.04c.78-.9,1.77-1.35,2.99-1.35s1.2.11,1.73.33c.92.4,1.5,1.1,1.74,2.11h3.1c-.17-1.43-.84-2.6-1.99-3.56-1.16-.95-2.71-1.43-4.62-1.43s-3.99.73-5.32,2.15c-1.35,1.44-2.01,3.36-2.01,5.75s.66,4.22,1.99,5.58c1.27,1.35,2.91,2.03,4.91,2.03s2.23-.25,3.07-.74M72.62,18.94V4.18h-3.13v5.63h-5.89v-5.63h-3.12v14.75h3.12v-6.59h5.89v6.59h3.13Z"/>
    </g>
  </g>
</svg>