<svg xmlns="http://www.w3.org/2000/svg" id="Layer_1" data-name="Layer 1" viewBox="0 0 1617.16 149.82"><g><path d="M330.18,118.22c-23.7,0-44.87-19.53-44.87-50.68s21.17-50.68,44.87-50.68,44.87,19.53,44.87,50.68-21.17,50.68-44.87,50.68ZM330.18,24.9c-17.14,0-29.66,15.8-29.66,42.63s12.52,42.63,29.66,42.63,29.66-15.8,29.66-42.63-12.52-42.63-29.66-42.63Z"></path><path d="M401.43,63.36c0,15.8,38.91,7.9,38.91,32.65,0,13.71-12.97,22.21-27.73,22.21-9.24,0-17.29-3.13-23.25-6.56l-1.49-18.33h5.81c2.68,13.27,9.84,17.74,20.12,17.74,7.75,0,14.91-4.02,14.91-11.63,0-17.29-38.01-8.2-38.01-32.35,0-12.52,10.88-21.91,25.19-21.91,8.5,0,15.06,2.68,20.12,5.52v17.74h-5.22c-1.64-9.99-5.81-16.1-16.1-16.1-7.6,0-13.27,4.17-13.27,11.03Z"></path><path d="M457.33,17.45l-6.86-3.13v-3.28l21.02-6.11h2.09v102.56c0,2.53.75,2.83,9.69,2.83v6.41h-32.2v-6.41c8.94,0,9.69-.3,9.69-2.83V22.22c0-3.13-.75-3.58-3.43-4.77Z"></path><path d="M526.05,45.18c17.74,0,32.5,14.46,32.5,36.52s-14.76,36.52-32.5,36.52-32.5-14.46-32.5-36.52,14.76-36.52,32.5-36.52ZM526.05,52.63c-12.22,0-18.78,11.03-18.78,29.07s6.56,29.07,18.78,29.07,18.78-11.03,18.78-29.07-6.56-29.07-18.78-29.07Z"></path><path d="M649.77,24.9c-17.59,0-30.71,14.91-30.71,42.18,0,24.74,14.16,42.33,32.79,42.33,10.88,0,21.02-5.07,27.58-15.65l5.66,4.47c-7.15,12.22-18.78,19.97-35.63,19.97-24.15,0-45.76-19.38-45.76-50.38s21.46-50.98,46.06-50.98c9.09,0,16.25,3.43,21.91,8.35l4.92-7.45h5.37l1.49,31.45h-4.92c-6.26-16.1-17.14-24.3-28.77-24.3Z"></path><path d="M703.57,57.7l-6.86-3.13v-3.28l21.02-6.11h2.09v62.31c0,2.53.75,2.83,9.69,2.83v6.41h-32.2v-6.41c8.94,0,9.69-.3,9.69-2.83v-45.02c0-3.13-.75-3.58-3.43-4.77ZM713.11,10.89c5.22,0,9.39,4.17,9.39,9.39s-4.17,9.39-9.39,9.39-9.39-4.17-9.39-9.39,4.17-9.39,9.39-9.39Z"></path><path d="M765.29,118.22c-10.73,0-18.78-7.01-18.78-16.84v-47.4h-9.54v-7.3h9.54v-17.89l12.82-3.73v21.61h22.21v7.3h-22.21v43.82c0,7.75,4.03,11.48,11.18,11.48,5.22,0,9.54-2.83,13.71-7.45l3.88,4.77c-5.66,7.75-14.31,11.63-22.81,11.63Z"></path><path d="M799.42,149.82c-5.96,0-11.03-3.58-11.03-9.24,0-4.62,3.73-7.15,7.16-7.15,5.81,0,7.3,6.86,10.43,6.86,4.47,0,9.69-8.5,15.65-23.55l-25.19-60.82c-.89-2.38-1.94-2.83-9.24-2.83v-6.41h32.2v6.41c-8.5.3-9.39.45-9.39,1.94,0,.6.3,1.49.6,2.24l16.84,43.23h.45l16.99-43.23c.3-.75.6-1.64.6-2.24,0-1.49-.89-1.64-9.39-1.94v-6.41h26.38v6.41c-7.3,0-8.2.45-9.09,2.83l-25.94,63.65c-6.86,16.99-14.91,30.26-28.02,30.26Z"></path><path d="M977.4,116.73h-77.66v-6.56c11.63,0,13.42-.45,13.42-3.88V28.78c0-3.43-1.79-3.88-13.42-3.88v-6.56h40.84v6.56c-11.63,0-13.42.45-13.42,3.88v81.09h17.14c18.33,0,25.49-3.28,30.26-26.38h5.96l-3.13,33.24Z"></path><path d="M1025.1,118.22c-16.99,0-32.35-13.42-32.35-35.78s15.35-37.27,32.2-37.27c18.19,0,26.68,13.27,26.68,29.81v4.77h-46.21v.45c0,19.23,10.58,29.07,22.51,29.07,7.75,0,12.82-2.98,18.48-10.73l5.52,3.88c-5.07,10.14-15.8,15.8-26.83,15.8ZM1005.87,73.2h33.24c-.15-12.67-4.17-20.72-14.76-20.72-8.79,0-16.55,7.15-18.48,20.72Z"></path><path d="M1092.77,149.82c-19.23,0-32.94-6.41-32.94-18.93,0-7.3,7.3-12.52,16.84-14.31-5.96-1.94-9.69-6.86-9.69-12.22,0-7.45,6.41-12.22,12.37-14.91-8.2-4.32-13.12-11.93-13.12-20.42,0-12.97,12.97-23.85,28.17-23.85,8.2,0,15.65,3.28,20.87,8.2,4.32-5.37,9.54-11.03,15.65-11.03,5.37,0,9.09,3.13,9.09,8.65,0,4.92-3.88,7.75-7.16,7.75-5.66,0-6.11-5.07-8.65-5.07-1.79,0-3.88,1.19-5.96,3.28,2.53,3.58,4.03,7.75,4.03,12.07,0,12.82-12.82,23.85-27.88,23.85-3.58,0-7.01-.45-9.99-1.49-5.81,2.83-8.94,5.22-8.94,9.24,0,2.98,2.09,5.37,5.51,5.37h28.02c12.97,0,23.7,4.92,23.7,17.74,0,16.7-19.08,26.09-39.95,26.09ZM1080.69,118.22c-5.22,2.24-9.24,5.66-9.24,11.63,0,8.65,9.69,12.82,22.51,12.82,15.5,0,27.28-6.41,27.28-15.35,0-6.71-4.17-9.09-13.86-9.09h-26.68ZM1094.41,86.32c8.79,0,14.46-6.71,14.46-17.29s-5.66-17.44-14.46-17.44-14.61,6.71-14.61,17.44,5.67,17.29,14.61,17.29Z"></path><path d="M1176.09,118.22c-16.99,0-32.35-13.42-32.35-35.78s15.35-37.27,32.2-37.27c18.19,0,26.68,13.27,26.68,29.81v4.77h-46.21v.45c0,19.23,10.58,29.07,22.51,29.07,7.75,0,12.82-2.98,18.48-10.73l5.52,3.88c-5.07,10.14-15.8,15.8-26.83,15.8ZM1156.86,73.2h33.24c-.15-12.67-4.17-20.72-14.76-20.72-8.79,0-16.55,7.15-18.48,20.72Z"></path><path d="M1228.26,63.36c0,15.8,38.91,7.9,38.91,32.65,0,13.71-12.97,22.21-27.73,22.21-9.24,0-17.29-3.13-23.25-6.56l-1.49-18.33h5.81c2.68,13.27,9.84,17.74,20.12,17.74,7.75,0,14.91-4.02,14.91-11.63,0-17.29-38.01-8.2-38.01-32.35,0-12.52,10.88-21.91,25.19-21.91,8.5,0,15.06,2.68,20.12,5.52v17.74h-5.22c-1.64-9.99-5.81-16.1-16.1-16.1-7.6,0-13.27,4.17-13.27,11.03Z"></path><path d="M1311.29,118.22c-16.99,0-32.35-13.42-32.35-35.78s15.35-37.27,32.2-37.27c18.19,0,26.68,13.27,26.68,29.81v4.77h-46.21v.45c0,19.23,10.58,29.07,22.51,29.07,7.75,0,12.82-2.98,18.48-10.73l5.52,3.88c-5.07,10.14-15.8,15.8-26.83,15.8ZM1292.06,73.2h33.24c-.15-12.67-4.17-20.72-14.76-20.72-8.79,0-16.55,7.15-18.48,20.72Z"></path><path d="M1382.09,116.73h-32.2v-6.41c8.94,0,9.69-.3,9.69-2.83v-45.02c0-3.13-.75-3.58-3.43-4.77l-6.86-3.13v-3.28l21.02-6.11h2.09v13.27c4.47-5.81,14.16-13.27,24.3-13.27,14.46,0,20.12,11.63,20.12,24.89v37.42c0,2.53.75,2.83,9.69,2.83v6.41h-32.2v-6.41c8.94,0,9.69-.3,9.69-2.83v-36.22c0-10.43-4.32-16.4-13.57-16.4-7.16,0-13.86,4.32-18.04,8.79v43.82c0,2.53.75,2.83,9.69,2.83v6.41Z"></path><path d="M1462.14,118.22c-10.73,0-18.78-7.01-18.78-16.84v-47.4h-9.54v-7.3h9.54v-17.89l12.82-3.73v21.61h22.21v7.3h-22.21v43.82c0,7.75,4.03,11.48,11.18,11.48,5.22,0,9.54-2.83,13.71-7.45l3.88,4.77c-5.66,7.75-14.31,11.63-22.81,11.63Z"></path><path d="M1524,118.22c-16.99,0-32.35-13.42-32.35-35.78s15.35-37.27,32.2-37.27c18.19,0,26.68,13.27,26.68,29.81v4.77h-46.21v.45c0,19.23,10.58,29.07,22.51,29.07,7.75,0,12.82-2.98,18.48-10.73l5.52,3.88c-5.07,10.14-15.8,15.8-26.83,15.8ZM1504.77,73.2h33.24c-.15-12.67-4.17-20.72-14.76-20.72-8.79,0-16.55,7.15-18.48,20.72Z"></path><path d="M1599.27,116.73h-36.67v-6.41c8.94,0,9.69-.3,9.69-2.83v-45.02c0-3.13-.75-3.58-3.43-4.77l-6.86-3.13v-3.28l21.02-6.11h2.09v19.83c4.47-7.6,13.71-19.83,22.21-19.83,6.56,0,9.84,4.47,9.84,8.94,0,5.22-3.58,8.05-8.05,8.05-4.17,0-5.96-4.32-9.39-4.32-4.17.3-10.58,7.75-14.61,13.71v35.63c0,2.83.75,3.13,14.16,3.13v6.41Z"></path></g><g><g><g id="_Radial_Repeat_" data-name="&amp;lt;Radial Repeat&amp;gt;"><path d="M23.86,118.77l-8.57-8.58c-.54-.54-.54-1.41,0-1.95l9.33-9.33,46.8-36.56-36.27,47.08-9.33,9.33c-.54.54-1.41.54-1.95,0Z"></path></g><g id="_Radial_Repeat_-2" data-name="&amp;lt;Radial Repeat&amp;gt;"><path d="M0,73.63v-12.13c0-.76.62-1.38,1.38-1.38h13.2s58.94,7.24,58.94,7.24l-58.94,7.64H1.38C.62,75.01,0,74.39,0,73.63Z"></path></g><g id="_Radial_Repeat_-3" data-name="&amp;lt;Radial Repeat&amp;gt;"><path d="M15.05,24.84l8.58-8.57c.54-.54,1.41-.54,1.95,0l9.33,9.33,36.56,46.8L24.38,36.12l-9.33-9.33c-.54-.54-.54-1.41,0-1.95Z"></path></g><g id="_Radial_Repeat_-4" data-name="&amp;lt;Radial Repeat&amp;gt;"><path d="M60.19.98h12.13c.76,0,1.38.62,1.38,1.38v13.2s-7.24,58.94-7.24,58.94l-7.64-58.94V2.36c0-.76.62-1.38,1.38-1.38Z"></path></g><g id="_Radial_Repeat_-5" data-name="&amp;lt;Radial Repeat&amp;gt;"><path d="M108.98,16.03l8.57,8.58c.54.54.54,1.41,0,1.95l-9.33,9.33-46.8,36.56,36.27-47.08,9.33-9.33c.54-.54,1.41-.54,1.95,0Z"></path></g><g id="_Radial_Repeat_-6" data-name="&amp;lt;Radial Repeat&amp;gt;"><path d="M132.83,61.17v12.13c0,.76-.62,1.38-1.38,1.38h-13.2s-58.94-7.24-58.94-7.24l58.94-7.64h13.2c.76,0,1.38.62,1.38,1.38Z"></path></g><g id="_Radial_Repeat_-7" data-name="&amp;lt;Radial Repeat&amp;gt;"><path d="M117.78,109.96l-8.58,8.57c-.54.54-1.41.54-1.95,0l-9.33-9.33-36.56-46.8,47.08,36.27,9.33,9.33c.54.54.54,1.41,0,1.95Z"></path></g><g id="_Radial_Repeat_-8" data-name="&amp;lt;Radial Repeat&amp;gt;"><path d="M72.64,133.82h-12.13c-.76,0-1.38-.62-1.38-1.38v-13.2s7.24-58.94,7.24-58.94l7.64,58.94v13.2c0,.76-.62,1.38-1.38,1.38Z"></path></g></g><g><circle cx="223.36" cy="8.47" r="8.47"></circle><circle cx="223.36" cy="126.34" r="8.47"></circle><circle cx="162.67" cy="67.4" r="8.47"></circle><circle cx="180.44" cy="24.48" r="8.47"></circle><circle cx="180.44" cy="110.32" r="8.47"></circle></g></g></svg>