<?xml version="1.0" encoding="UTF-8"?>
<svg xmlns="http://www.w3.org/2000/svg" id="Layer_1" data-name="Layer 1" viewBox="0 0 700.91 129.16">
  <title>Runner&amp;apos;s World logo stor svart</title>
  <path d="M88.88,60.48c-3.28,6.08-8.37,9.86-13.8,11l25,55.7H71.47L50.93,77.24H25.47v50H0V1.5H59.31c14,0,23.82,4.76,28.42,13.31C91.19,20.72,93,28.12,93,38.63c0,9.69-1.64,17.09-4.11,21.85m-23-30.06c-1.48-4.11-5.75-6.25-12.15-6.25H25.63V56.05H55c5.09,0,9.2-1.81,10.68-4.77a34.33,34.33,0,0,0,1.64-10.35,35.82,35.82,0,0,0-1.48-10.51m82.81,98.74c-27.93,0-47.48-11.67-47.48-38.12V1.5h26V88.91c0,11.5,7.39,18.4,21.85,18.4,13,0,21.36-6.74,21.36-18.24V1.5h26V92.19c0,24.48-19.06,37-47.65,37m123.22-2L231,48.16v79H206.36V1.5h28.75l39.27,77.22V1.5H299V127.19Zm102.85,0L334,48.16v79H309.37V1.5H338L377.4,78.72V1.5h24.47V127.19Zm37.47,0V1.5h81.16v23H438V52.76h53.07v23H438v28.59h56v22.84Zm179.9-66.71c-3.12,6.08-8.21,9.86-13.63,11l25,55.7H574.88L554.34,77.24H528.88v50H503.41V1.5h59.31c14,0,23.83,4.76,28.42,13.31,3.46,5.91,5.26,13.31,5.26,23.82,0,9.69-1.64,17.09-4.27,21.85M569.3,30.42c-1.48-4.11-5.75-6.25-12.16-6.25H529V56.05h29.41c5.1,0,9.2-1.81,10.51-4.77a29.5,29.5,0,0,0,1.82-10.35,35.82,35.82,0,0,0-1.48-10.51M619.08,1.34l-5.59,27.93H600.68l-.33-27.93Zm-.66,103.17h79.85v22.68H618.42Zm41.9-7.88c-24.81,0-38-6.25-40.91-20.37a59.47,59.47,0,0,1-.82-10h23.49a17.41,17.41,0,0,0,.66,6.08c1.31,3.78,6.41,5.75,16.92,5.75,11.17,0,15.44-3,15.44-9.2,0-5.91-4.1-7.56-14.78-9.86-3.78-.82-12-2.62-16.43-3.78-16.43-4.1-24.16-12-24.16-26.94,0-16.92,12.82-28.1,37-28.1,20.71,0,33.36,5.76,37.46,18.41,1.64,4.93,1.48,10.84,1.48,12.65H672.8a17,17,0,0,0-.82-5.59c-1.48-3.78-4.93-6.08-15.11-6.08-10.52,0-14,3-14,8.22,0,4.92,3.61,7.23,12.65,9.36,5.42,1.32,14.46,3.29,17.58,4,16.6,3.77,25.31,11.33,25.31,27.1,0,19.06-13.15,28.43-38.12,28.43M640.6,109.28h-2.79l-2.14,9.53-2-9.53h-3.29l-1.8,9.53-2.3-9.53h-3l3.45,13.14h3.12l2.14-9.53,2,9.53h3.29Zm7.73-.17c-4.61,0-6.09,2.31-6.09,6.74,0,4.93,1.81,6.74,6.09,6.74,3.94,0,5.91-1.81,5.91-6.74,0-5.09-2-6.74-5.91-6.74m0,11.18c-2.47,0-3.29-1.48-3.29-4.44,0-3.12,1-4.27,3.29-4.27,2.13,0,3.11,1.15,3.11,4.27,0,3-1,4.44-3.11,4.44m19.38-7.07c0-2.79-1-3.94-3.78-3.94H657v13.14h2.8v-5.09h2.95l2.3,5.09h3.29l-2.79-5.58c1.14-.33,2.13-1.48,2.13-3.62m-2.79.17c0,1.31-.33,1.64-1.48,1.64h-3.61v-3.29h3.44c1.32,0,1.65.5,1.65,1.65m15,9V120h-6.08V109.28H671v13.14Zm13.31-6.73c0-5.1-1.81-6.41-5.26-6.41h-5.59v13.14h5.75c3.29,0,5.1-1.31,5.1-6.73M687.43,120h-2.3v-8.22h2.3c2,0,3,.83,3,4,0,3.45-.66,4.27-3,4.27" style="fill:#1d1d1b"></path>
  <path d="M695.05,5.68h1.1l1.1,2.2h1.28l-1.28-2.2A1.62,1.62,0,0,0,698.35,4a1.54,1.54,0,0,0-1.65-1.65H694v5.5h1.1Zm0-2.38h1.46a.67.67,0,0,1,.74.73c0,.55-.19.92-.74.92h-1.46Zm1.1,7.14c2.92,0,4.75-2.19,4.76-5.29V5.1A4.76,4.76,0,0,0,696,0C693,0,691.2,2.2,691.2,5.13,691.2,8.24,693,10.44,696.15,10.44ZM696,.73c2.75,0,4.22,1.84,4.22,4.4,0,2.75-1.47,4.58-4,4.58-2.75,0-4.21-2-4.21-4.58S693.4.73,696,.73Z" style="fill:#1d1d1b"></path>
</svg>
