<?xml version="1.0"?>
<svg id="Layer_2" data-name="Layer 2" xmlns="http://www.w3.org/2000/svg" viewBox="0 0 622 25">
  <defs>
    
  </defs>
  <g id="Layer_1-2" data-name="Layer 1">
    <path class="cls-1" d="M12.5,0h360.6c6.9,0,12.5,5.6,12.5,12.5h0c0,6.9-5.6,12.5-12.5,12.5H12.5C5.6,25,0,19.4,0,12.5h0C0,5.6,5.6,0,12.5,0Z"></path>
    <path class="cls-2" d="M416.9,0h192.6c6.9,0,12.5,5.6,12.5,12.5h0c0,6.9-5.6,12.5-12.5,12.5h-192.6c-6.9,0-12.5-5.6-12.5-12.5h0c0-6.9,5.6-12.5,12.5-12.5Z"></path>
  </g>
</svg>